<svg xmlns="http://www.w3.org/2000/svg" viewBox="0 0 40 40" width="40" height="40">
  <!-- Rounded Background Container -->
  <rect width="40" height="40" rx="9" fill="#0056D2" />

  <!-- Graduation Cap Icon (100% matched to your Figma geometry) -->
  <g fill="#DCE6FF">
    <!-- Diamond Mortarboard Top -->
    <path d="M18.27 13.43 C18.72 13.18 19.28 13.18 19.73 13.43 L26.37 17.15 C26.78 17.38 27.04 17.82 27.04 18.29 L27.04 18.57 C27.04 19.04 26.78 19.48 26.37 19.71 L19.73 23.43 C19.28 23.68 18.72 23.68 18.27 23.43 L10.63 19.16 C10.24 18.94 10 18.53 10 18.08 C10 17.63 10.24 17.22 10.63 17.00 Z" />

    <!-- Lower Cap Base / Headband -->
    <path d="M13.2 21.05 L18.25 23.87 C18.72 24.13 19.28 24.13 19.75 23.87 L24.8 21.05 C24.93 20.98 25.1 21.07 25.1 21.22 L25.1 23.44 C25.1 23.94 24.83 24.41 24.39 24.66 L19.64 27.32 C19.25 27.54 18.75 27.54 18.36 27.32 L13.61 24.66 C13.17 24.41 12.9 23.94 12.9 23.44 L12.9 21.22 C12.9 21.07 13.07 20.98 13.2 21.05 Z" />

    <!-- Hanging Right Tassel -->
    <path d="M25.5 19.2 L27.1 18.3 L27.1 24.2 C27.1 24.42 26.92 24.6 26.7 24.6 L25.9 24.6 C25.68 24.6 25.5 24.42 25.5 24.2 Z" />
  </g>
</svg>
